<svg width="20" height="20" viewBox="0 0 20 20" fill="none" xmlns="http://www.w3.org/2000/svg">
<path d="M10.9589 1.6875V2.35547C12.0687 2.60287 12.9704 3.23372 13.664 4.24805C14.3775 5.26237 14.7441 6.48698 14.7639 7.92188V9.14648C14.7838 10.8783 15.2197 12.4245 16.0719 13.7852L16.5178 14.4902C16.6962 14.7871 16.7259 15.0964 16.607 15.418C16.4683 15.7396 16.2503 15.9128 15.953 15.9375H4.06232C3.76506 15.9128 3.54706 15.7396 3.40833 15.418C3.28943 15.0964 3.31915 14.7871 3.49751 14.4902L3.94342 13.7852C4.79558 12.4245 5.23157 10.8783 5.25139 9.14648V7.92188C5.27121 6.48698 5.63784 5.26237 6.35128 4.24805C7.0449 3.23372 7.94661 2.60287 9.05641 2.35547V1.6875C9.05641 1.34115 9.14559 1.05664 9.32395 0.833984C9.50231 0.611328 9.73021 0.5 10.0077 0.5C10.2851 0.5 10.513 0.611328 10.6914 0.833984C10.8697 1.05664 10.9589 1.34115 10.9589 1.6875ZM9.76985 4.0625C8.89787 4.08724 8.16461 4.45833 7.57007 5.17578C6.99536 5.91797 6.69809 6.83333 6.67827 7.92188V9.14648C6.67827 10.9772 6.28192 12.6471 5.4892 14.1562H14.5261C13.7334 12.6471 13.3371 10.9772 13.3371 9.14648V7.92188C13.3172 6.83333 13.02 5.91797 12.4453 5.17578C11.8507 4.45833 11.1175 4.08724 10.2455 4.0625H9.76985ZM11.9102 17.125C11.9102 17.7682 11.7219 18.3249 11.3454 18.7949C10.9688 19.265 10.5229 19.5 10.0077 19.5C9.4924 19.5 9.0465 19.265 8.66996 18.7949C8.29342 18.3249 8.10515 17.7682 8.10515 17.125H11.9102ZM0.495117 7.92188C0.534753 7.3776 0.772566 7.08073 1.20856 7.03125H3.58669C4.02269 7.08073 4.2605 7.3776 4.30014 7.92188C4.2605 8.46615 4.02269 8.76302 3.58669 8.8125H1.20856C0.772566 8.76302 0.534753 8.46615 0.495117 7.92188ZM18.8068 7.03125C19.2428 7.08073 19.4806 7.3776 19.5202 7.92188C19.4806 8.46615 19.2428 8.76302 18.8068 8.8125H16.4286C15.9926 8.76302 15.7548 8.46615 15.7152 7.92188C15.7548 7.3776 15.9926 7.08073 16.4286 7.03125H18.8068ZM18.2717 1.2793C18.4104 1.79883 18.3014 2.19466 17.9447 2.4668L16.0422 3.6543C15.626 3.85221 15.3089 3.72852 15.0909 3.2832C14.9324 2.76367 15.0315 2.36784 15.3882 2.0957L17.2907 0.908203C17.7069 0.710287 18.0339 0.833984 18.2717 1.2793ZM2.07063 2.4668C1.71391 2.19466 1.61482 1.79883 1.77337 1.2793C1.99136 0.833984 2.30845 0.710287 2.72462 0.908203L4.62713 2.0957C4.98385 2.36784 5.09285 2.76367 4.95412 3.2832C4.71631 3.72852 4.38932 3.85221 3.97314 3.6543L2.07063 2.4668Z" fill="#F47B00"/>
</svg>
