<svg width="13" height="22" viewBox="0 0 13 22" fill="none" xmlns="http://www.w3.org/2000/svg">
<path d="M3.2401 4.37L10.4401 4.37L10.4401 19.5367L3.2401 19.5367L3.2401 4.37ZM8.6401 3.20333L8.6401 2.03667L5.04009 2.03667L5.04009 3.20333L2.34009 3.20333C2.25259 3.20333 2.18072 3.23067 2.12447 3.28536C2.06822 3.34005 2.04009 3.40992 2.04009 3.495L2.04009 20.4117C2.04009 20.4967 2.06822 20.5666 2.12447 20.6213C2.18072 20.676 2.25259 20.7033 2.34009 20.7033L11.3401 20.7033C11.4276 20.7033 11.4995 20.676 11.5557 20.6213C11.612 20.5666 11.6401 20.4967 11.6401 20.4117L11.6401 3.49499C11.6401 3.40992 11.612 3.34005 11.5557 3.28536C11.4995 3.23067 11.4276 3.20333 11.3401 3.20333L8.6401 3.20333ZM5.04009 0.869995L8.6401 0.869995C8.97134 0.869995 9.25415 0.983928 9.48852 1.2118C9.7229 1.43965 9.84009 1.71461 9.84009 2.03667L11.3401 2.03667C11.7526 2.03667 12.1057 2.17946 12.3995 2.46505C12.6932 2.75064 12.8401 3.09396 12.8401 3.49499L12.8401 20.4117C12.8401 20.8127 12.6932 21.156 12.3995 21.4416C12.1057 21.7272 11.7526 21.87 11.3401 21.87L2.34009 21.87C1.9276 21.87 1.57447 21.7272 1.28072 21.4416C0.986965 21.156 0.840088 20.8127 0.840088 20.4117L0.840087 3.495C0.840087 3.09396 0.986964 2.75064 1.28072 2.46505C1.57447 2.17946 1.9276 2.03667 2.34009 2.03667L3.84009 2.03667C3.84009 1.71461 3.95728 1.43965 4.19165 1.21178C4.42603 0.983925 4.70884 0.869995 5.04009 0.869995Z" fill="#64748b"/>
</svg>
