<svg width="144" height="20" viewBox="0 0 144 20" fill="none" xmlns="http://www.w3.org/2000/svg">
<path d="M10.2074 6.34375C10.1278 5.59943 9.79261 5.01989 9.2017 4.60511C8.61648 4.19034 7.85511 3.98295 6.91761 3.98295C6.25852 3.98295 5.69318 4.08239 5.22159 4.28125C4.75 4.48011 4.3892 4.75 4.1392 5.09091C3.8892 5.43182 3.76136 5.82102 3.75568 6.25852C3.75568 6.62216 3.83807 6.9375 4.00284 7.20455C4.1733 7.47159 4.40341 7.69886 4.69318 7.88636C4.98295 8.06818 5.30398 8.22159 5.65625 8.34659C6.00852 8.47159 6.36364 8.5767 6.72159 8.66193L8.35795 9.07102C9.01705 9.22443 9.65057 9.43182 10.2585 9.69318C10.8722 9.95455 11.4205 10.2841 11.9034 10.6818C12.392 11.0795 12.7784 11.5597 13.0625 12.1222C13.3466 12.6847 13.4886 13.3437 13.4886 14.0994C13.4886 15.1222 13.2273 16.0227 12.7045 16.8011C12.1818 17.5739 11.4261 18.179 10.4375 18.6165C9.45455 19.0483 8.2642 19.2642 6.86648 19.2642C5.50852 19.2642 4.32955 19.054 3.32955 18.6335C2.33523 18.2131 1.55682 17.5994 0.994318 16.7926C0.4375 15.9858 0.136364 15.0028 0.0909091 13.8438H3.2017C3.24716 14.4517 3.43466 14.9574 3.7642 15.3608C4.09375 15.7642 4.52273 16.0653 5.05114 16.2642C5.58523 16.4631 6.18182 16.5625 6.84091 16.5625C7.52841 16.5625 8.13068 16.4602 8.64773 16.2557C9.17045 16.0455 9.57955 15.7557 9.875 15.3864C10.1705 15.0114 10.321 14.5739 10.3267 14.0739C10.321 13.6193 10.1875 13.2443 9.92614 12.9489C9.66477 12.6477 9.2983 12.3977 8.8267 12.1989C8.3608 11.9943 7.81534 11.8125 7.19034 11.6534L5.20455 11.142C3.76705 10.7727 2.63068 10.2131 1.79545 9.46307C0.965909 8.70739 0.551136 7.70455 0.551136 6.45454C0.551136 5.42614 0.829546 4.52557 1.38636 3.75284C1.94886 2.98011 2.71307 2.38068 3.67898 1.95454C4.64489 1.52273 5.73864 1.30682 6.96023 1.30682C8.19886 1.30682 9.28409 1.52273 10.2159 1.95454C11.1534 2.38068 11.8892 2.97443 12.4233 3.73579C12.9574 4.49148 13.233 5.3608 13.25 6.34375H10.2074ZM19.3382 19.2642C18.5087 19.2642 17.7615 19.1165 17.0967 18.821C16.4376 18.5199 15.9149 18.0767 15.5286 17.4915C15.1479 16.9062 14.9575 16.1847 14.9575 15.3267C14.9575 14.5881 15.0939 13.9773 15.3666 13.4943C15.6393 13.0114 16.0115 12.625 16.4831 12.3352C16.9547 12.0455 17.4859 11.8267 18.0768 11.679C18.6734 11.5256 19.2899 11.4148 19.9263 11.3466C20.6933 11.267 21.3155 11.196 21.7928 11.1335C22.27 11.0653 22.6166 10.9631 22.8325 10.8267C23.0541 10.6847 23.1649 10.4659 23.1649 10.1705V10.1193C23.1649 9.47727 22.9746 8.98011 22.5939 8.62784C22.2132 8.27557 21.6649 8.09943 20.949 8.09943C20.1933 8.09943 19.5939 8.2642 19.1507 8.59375C18.7132 8.9233 18.4178 9.3125 18.2643 9.76136L15.3837 9.35227C15.6109 8.55682 15.9859 7.89205 16.5087 7.35795C17.0314 6.81818 17.6706 6.41477 18.4263 6.14773C19.182 5.875 20.0172 5.73864 20.932 5.73864C21.5626 5.73864 22.1905 5.8125 22.8155 5.96023C23.4405 6.10795 24.0115 6.35227 24.5286 6.69318C25.0456 7.02841 25.4604 7.4858 25.7729 8.06534C26.0911 8.64489 26.2501 9.36932 26.2501 10.2386V19H23.2842V17.2017H23.182C22.9945 17.5653 22.7303 17.9062 22.3893 18.2244C22.0541 18.5369 21.6308 18.7898 21.1195 18.983C20.6138 19.1705 20.02 19.2642 19.3382 19.2642ZM20.1393 16.9972C20.7587 16.9972 21.2956 16.875 21.7501 16.6307C22.2047 16.3807 22.5541 16.0511 22.7984 15.642C23.0484 15.233 23.1734 14.7869 23.1734 14.304V12.7614C23.0768 12.8409 22.9121 12.9148 22.6791 12.983C22.4518 13.0511 22.1962 13.1108 21.9121 13.1619C21.628 13.2131 21.3467 13.2585 21.0683 13.2983C20.7899 13.3381 20.5484 13.3722 20.3439 13.4006C19.8837 13.4631 19.4717 13.5653 19.1081 13.7074C18.7445 13.8494 18.4575 14.0483 18.2473 14.304C18.0371 14.554 17.932 14.8778 17.932 15.2756C17.932 15.8438 18.1393 16.2727 18.5541 16.5625C18.9689 16.8523 19.4973 16.9972 20.1393 16.9972ZM35.3831 5.90909V8.29545H27.6445V5.90909H35.3831ZM29.5791 19V4.67329C29.5791 3.79261 29.7609 3.05966 30.1246 2.47443C30.4939 1.8892 30.9882 1.4517 31.6075 1.16193C32.2268 0.872158 32.9143 0.727272 33.67 0.727272C34.2041 0.727272 34.6786 0.769886 35.0933 0.855114C35.5081 0.940341 35.8149 1.01705 36.0138 1.08523L35.4001 3.47159C35.2695 3.43182 35.1047 3.39204 34.9058 3.35227C34.707 3.30682 34.4854 3.28409 34.2411 3.28409C33.6672 3.28409 33.2609 3.4233 33.0223 3.7017C32.7893 3.97443 32.6729 4.36648 32.6729 4.87784V19H29.5791ZM42.5026 19.2557C41.1901 19.2557 40.0565 18.983 39.102 18.4375C38.1531 17.8864 37.423 17.108 36.9116 16.1023C36.4003 15.0909 36.1446 13.9006 36.1446 12.5312C36.1446 11.1847 36.4003 10.0028 36.9116 8.9858C37.4287 7.96307 38.1503 7.16761 39.0764 6.59943C40.0026 6.02557 41.0906 5.73864 42.3406 5.73864C43.1474 5.73864 43.9088 5.86932 44.6247 6.13068C45.3463 6.38636 45.9827 6.78409 46.5338 7.32386C47.0906 7.86364 47.5281 8.55114 47.8463 9.38636C48.1645 10.2159 48.3236 11.2045 48.3236 12.3523V13.2983H37.5935V11.2188H45.3662C45.3605 10.6278 45.2327 10.1023 44.9827 9.64205C44.7327 9.17614 44.3832 8.80966 43.9344 8.54261C43.4912 8.27557 42.9741 8.14205 42.3832 8.14205C41.7526 8.14205 41.1986 8.29545 40.7213 8.60227C40.244 8.90341 39.8719 9.30114 39.6048 9.79545C39.3435 10.2841 39.2099 10.821 39.2043 11.4062V13.2216C39.2043 13.983 39.3435 14.6364 39.6219 15.1818C39.9003 15.7216 40.2895 16.1364 40.7895 16.4261C41.2895 16.7102 41.8747 16.8523 42.5452 16.8523C42.994 16.8523 43.4003 16.7898 43.7639 16.6648C44.1276 16.5341 44.4429 16.3438 44.7099 16.0938C44.977 15.8438 45.1787 15.5341 45.3151 15.1648L48.1957 15.4886C48.0139 16.25 47.6673 16.9148 47.156 17.483C46.6503 18.0455 46.0026 18.483 45.2128 18.7955C44.423 19.1023 43.5196 19.2557 42.5026 19.2557ZM53.4189 1.54545V19H50.3337V1.54545H53.4189ZM55.9915 19V5.90909H59.0767V19H55.9915ZM57.5426 4.05114C57.054 4.05114 56.6335 3.8892 56.2812 3.56534C55.929 3.23579 55.7528 2.84091 55.7528 2.38068C55.7528 1.91477 55.929 1.51989 56.2812 1.19602C56.6335 0.866477 57.054 0.701704 57.5426 0.701704C58.0369 0.701704 58.4574 0.866477 58.804 1.19602C59.1563 1.51989 59.3324 1.91477 59.3324 2.38068C59.3324 2.84091 59.1563 3.23579 58.804 3.56534C58.4574 3.8892 58.0369 4.05114 57.5426 4.05114ZM64.7345 11.3295V19H61.6493V5.90909H64.5982V8.13352H64.7516C65.0527 7.40057 65.5328 6.81818 66.1919 6.38636C66.8567 5.95455 67.6777 5.73864 68.655 5.73864C69.5584 5.73864 70.3453 5.93182 71.0158 6.31818C71.6919 6.70455 72.2146 7.2642 72.584 7.99716C72.959 8.73011 73.1436 9.61932 73.1379 10.6648V19H70.0527V11.142C70.0527 10.267 69.8254 9.58239 69.3709 9.08807C68.922 8.59375 68.2999 8.34659 67.5044 8.34659C66.9646 8.34659 66.4845 8.46591 66.0641 8.70455C65.6493 8.9375 65.3226 9.27557 65.084 9.71875C64.851 10.1619 64.7345 10.6989 64.7345 11.3295ZM81.4697 19.2557C80.1572 19.2557 79.0237 18.983 78.0692 18.4375C77.1203 17.8864 76.3902 17.108 75.8788 16.1023C75.3675 15.0909 75.1118 13.9006 75.1118 12.5312C75.1118 11.1847 75.3675 10.0028 75.8788 8.9858C76.3959 7.96307 77.1175 7.16761 78.0436 6.59943C78.9697 6.02557 80.0578 5.73864 81.3078 5.73864C82.1146 5.73864 82.876 5.86932 83.5919 6.13068C84.3135 6.38636 84.9499 6.78409 85.501 7.32386C86.0578 7.86364 86.4953 8.55114 86.8135 9.38636C87.1317 10.2159 87.2908 11.2045 87.2908 12.3523V13.2983H76.5607V11.2188H84.3334C84.3277 10.6278 84.1999 10.1023 83.9499 9.64205C83.6999 9.17614 83.3504 8.80966 82.9016 8.54261C82.4584 8.27557 81.9413 8.14205 81.3504 8.14205C80.7197 8.14205 80.1658 8.29545 79.6885 8.60227C79.2112 8.90341 78.8391 9.30114 78.572 9.79545C78.3107 10.2841 78.1771 10.821 78.1715 11.4062V13.2216C78.1715 13.983 78.3107 14.6364 78.5891 15.1818C78.8675 15.7216 79.2567 16.1364 79.7567 16.4261C80.2567 16.7102 80.8419 16.8523 81.5124 16.8523C81.9612 16.8523 82.3675 16.7898 82.7311 16.6648C83.0947 16.5341 83.4101 16.3438 83.6771 16.0938C83.9442 15.8438 84.1459 15.5341 84.2822 15.1648L87.1629 15.4886C86.9811 16.25 86.6345 16.9148 86.1232 17.483C85.6175 18.0455 84.9697 18.483 84.18 18.7955C83.3902 19.1023 82.4868 19.2557 81.4697 19.2557ZM99.6474 9.36932L96.8349 9.67614C96.7554 9.39205 96.6162 9.125 96.4173 8.875C96.2241 8.625 95.9628 8.4233 95.6332 8.26989C95.3037 8.11648 94.9003 8.03977 94.423 8.03977C93.781 8.03977 93.2412 8.17898 92.8037 8.45739C92.3719 8.7358 92.1588 9.09659 92.1645 9.53977C92.1588 9.92045 92.298 10.2301 92.5821 10.4688C92.8719 10.7074 93.3491 10.9034 94.0139 11.0568L96.2469 11.5341C97.4855 11.8011 98.406 12.2244 99.0082 12.804C99.6162 13.3835 99.923 14.142 99.9287 15.0795C99.923 15.9034 99.6815 16.6307 99.2043 17.2614C98.7327 17.8864 98.0764 18.375 97.2355 18.7273C96.3946 19.0795 95.4287 19.2557 94.3378 19.2557C92.7355 19.2557 91.4457 18.9205 90.4685 18.25C89.4912 17.5739 88.9088 16.6335 88.7213 15.429L91.7298 15.1392C91.8662 15.7301 92.156 16.1761 92.5991 16.4773C93.0423 16.7784 93.619 16.929 94.3293 16.929C95.0622 16.929 95.6503 16.7784 96.0935 16.4773C96.5423 16.1761 96.7668 15.804 96.7668 15.3608C96.7668 14.9858 96.6219 14.6761 96.3321 14.4318C96.048 14.1875 95.6048 14 95.0026 13.8693L92.7696 13.4006C91.5139 13.1392 90.5849 12.6989 89.9827 12.0795C89.3804 11.4545 89.0821 10.6648 89.0878 9.71023C89.0821 8.90341 89.3008 8.20455 89.744 7.61364C90.1929 7.01705 90.8151 6.55682 91.6105 6.23295C92.4116 5.90341 93.3349 5.73864 94.3804 5.73864C95.9145 5.73864 97.1219 6.06534 98.0026 6.71875C98.8889 7.37216 99.4372 8.25568 99.6474 9.36932ZM110.524 1.54545V19H107.362V1.54545H110.524ZM128.945 10.2727C128.945 12.1534 128.592 13.7642 127.888 15.1051C127.189 16.4403 126.235 17.4631 125.024 18.1733C123.82 18.8835 122.453 19.2386 120.925 19.2386C119.396 19.2386 118.027 18.8835 116.817 18.1733C115.612 17.4574 114.658 16.4318 113.953 15.0966C113.254 13.7557 112.905 12.1477 112.905 10.2727C112.905 8.39205 113.254 6.78409 113.953 5.44886C114.658 4.10795 115.612 3.08239 116.817 2.37216C118.027 1.66193 119.396 1.30682 120.925 1.30682C122.453 1.30682 123.82 1.66193 125.024 2.37216C126.235 3.08239 127.189 4.10795 127.888 5.44886C128.592 6.78409 128.945 8.39205 128.945 10.2727ZM125.766 10.2727C125.766 8.94886 125.558 7.83239 125.144 6.92329C124.735 6.00852 124.166 5.31818 123.439 4.85227C122.712 4.38068 121.874 4.14489 120.925 4.14489C119.976 4.14489 119.138 4.38068 118.411 4.85227C117.683 5.31818 117.112 6.00852 116.698 6.92329C116.288 7.83239 116.084 8.94886 116.084 10.2727C116.084 11.5966 116.288 12.7159 116.698 13.6307C117.112 14.5398 117.683 15.2301 118.411 15.7017C119.138 16.1676 119.976 16.4006 120.925 16.4006C121.874 16.4006 122.712 16.1676 123.439 15.7017C124.166 15.2301 124.735 14.5398 125.144 13.6307C125.558 12.7159 125.766 11.5966 125.766 10.2727ZM129.794 4.19602V1.54545H143.72V4.19602H138.325V19H135.188V4.19602H129.794Z" fill="#1E293B"/>
</svg>
