<svg width="22" height="21" viewBox="0 0 22 21" fill="none" xmlns="http://www.w3.org/2000/svg">
<path d="M14.0421 19.0318H13.0115V16.2845L11.4656 14.7674V19.6879C11.4656 20.0706 11.5623 20.3849 11.7555 20.631C11.9487 20.877 12.1956 21 12.4962 21H14.5574C14.8579 21 15.1048 20.877 15.2981 20.631C15.4913 20.3849 15.5879 20.0706 15.5879 19.6879V18.8678L14.0421 17.3096V19.0318ZM6.57041 11.8151V19.6879C6.57041 20.0706 6.66703 20.3849 6.86026 20.631C7.05349 20.877 7.3004 21 7.60099 21H9.66213C9.96272 21 10.2096 20.877 10.4029 20.631C10.5961 20.3849 10.6927 20.0706 10.6927 19.6879V13.9883L7.27893 10.5439C6.84953 10.79 6.61335 11.2137 6.57041 11.8151ZM8.11627 12.4711H9.14685V19.0318H8.11627V12.4711ZM4.76691 15.7515H2.70576C2.40518 15.7515 2.15827 15.8745 1.96504 16.1205C1.77181 16.3665 1.67519 16.6809 1.67519 17.0636V19.6879C1.67519 20.0706 1.77181 20.3849 1.96504 20.631C2.15827 20.877 2.40518 21 2.70576 21H4.76691C5.06749 21 5.3144 20.877 5.50763 20.631C5.70087 20.3849 5.79748 20.0706 5.79748 19.6879V17.0636C5.79748 16.6809 5.70087 16.3665 5.50763 16.1205C5.3144 15.8745 5.06749 15.7515 4.76691 15.7515ZM4.25162 19.0318H3.22105V17.7197H4.25162V19.0318ZM20.9662 19.2368L20.4832 18.7858V1.31799C20.4832 0.935287 20.3865 0.620922 20.1933 0.374897C20.0001 0.128872 19.7532 0.00585938 19.4526 0.00585938H17.3914C17.0909 0.00585938 16.8439 0.128872 16.6507 0.374897C16.4575 0.620922 16.3609 0.935287 16.3609 1.31799V14.6444L15.5879 13.8653V6.56653C15.5879 6.18382 15.4913 5.86946 15.2981 5.62343C15.1048 5.37741 14.8579 5.25439 14.5574 5.25439H12.4962C12.1956 5.25439 11.9487 5.37741 11.7555 5.62343C11.5623 5.86946 11.4656 6.18382 11.4656 6.56653V9.76485L1.90063 0.21088C1.49269 -0.117153 1.1277 -0.0624809 0.805643 0.374897C0.547999 0.894283 0.59094 1.359 0.934464 1.76904L19.9679 20.754C20.1396 20.918 20.3007 21 20.451 21C20.6871 21 20.8911 20.877 21.0629 20.631C21.342 20.1116 21.3098 19.6469 20.9662 19.2368ZM14.0421 12.3481L13.0115 11.323V7.2226H14.0421V12.3481ZM18.9373 17.2276L17.9067 16.2025V1.97406H18.9373V17.2276Z" fill="#3182CE"/>
</svg>
