<svg width="16" height="18" viewBox="0 0 16 18" fill="none" xmlns="http://www.w3.org/2000/svg">
<path d="M15.3802 15.1094L9.11759 1.29688C8.84317 0.765625 8.48055 0.5 8.02972 0.5C7.57889 0.5 7.20646 0.765625 6.91244 1.29688L0.649798 15.1094C0.434182 15.6659 0.443983 16.1972 0.6792 16.7031C0.894815 17.2091 1.25744 17.4747 1.76708 17.5H14.2924C14.802 17.4747 15.1646 17.2091 15.3802 16.7031C15.6155 16.1972 15.6155 15.6659 15.3802 15.1094ZM2.0611 15.6786L8.00032 2.51116L13.9983 15.6786H2.0611ZM8.02972 12.0737C7.7749 12.0737 7.55928 12.1875 7.38287 12.4152C7.20646 12.6429 7.11825 12.9338 7.11825 13.2879C7.11825 13.6168 7.20646 13.8951 7.38287 14.1228C7.55928 14.3504 7.7749 14.4643 8.02972 14.4643C8.28454 14.4643 8.50015 14.3504 8.67656 14.1228C8.85298 13.8951 8.94118 13.6168 8.94118 13.2879C8.94118 12.9338 8.85298 12.6429 8.67656 12.4152C8.50015 12.1875 8.28454 12.0737 8.02972 12.0737ZM7.32407 6.26786V9.91071C7.36327 10.4673 7.59849 10.7708 8.02972 10.8214C8.46095 10.7708 8.69616 10.4673 8.73537 9.91071V6.26786C8.69616 5.71131 8.46095 5.40774 8.02972 5.35714C7.59849 5.40774 7.36327 5.71131 7.32407 6.26786Z" fill="#EF4444"/>
</svg>
